<svg width="147" height="35" viewBox="0 0 147 35" fill="none" xmlns="http://www.w3.org/2000/svg">
<path d="M56.3578 16.3466C56.3578 17.8586 55.5178 18.8426 53.6458 18.8426H50.8378V13.9226H53.6458C55.5178 13.9226 56.3578 14.8586 56.3578 16.3466ZM47.4778 11.1386V27.8906H50.8378V21.3626H52.4218L56.1178 27.8906H60.0058L55.9978 21.0986C58.6858 20.3786 59.8138 18.3146 59.8138 16.2746C59.8138 13.4666 57.7978 11.1386 53.7658 11.1386H47.4778ZM68.5648 17.1386C70.2928 17.1386 71.6848 18.2426 71.7328 19.9946H65.4208C65.6848 18.1706 66.9568 17.1386 68.5648 17.1386ZM74.8768 23.7146H71.2528C70.8208 24.6026 70.0288 25.3226 68.5888 25.3226C66.9088 25.3226 65.5648 24.2186 65.3968 22.2506H75.1168C75.1888 21.8186 75.2128 21.3866 75.2128 20.9546C75.2128 16.9946 72.5008 14.3786 68.6608 14.3786C64.7248 14.3786 61.9888 17.0426 61.9888 21.2426C61.9888 25.4186 64.7968 28.1066 68.6608 28.1066C71.9488 28.1066 74.1568 26.1626 74.8768 23.7146ZM76.8013 21.1946C76.8013 25.3466 79.4893 28.1066 82.8493 28.1066C84.9613 28.1066 86.4733 27.0986 87.2653 25.9466V27.8906H90.6493V14.5946H87.2653V16.4906C86.4733 15.3866 85.0093 14.3786 82.8733 14.3786C79.4893 14.3786 76.8013 17.0426 76.8013 21.1946ZM87.2653 21.2426C87.2653 23.7626 85.5853 25.1546 83.7373 25.1546C81.9373 25.1546 80.2333 23.7146 80.2333 21.1946C80.2333 18.6746 81.9373 17.3306 83.7373 17.3306C85.5853 17.3306 87.2653 18.7226 87.2653 21.2426ZM103.243 27.8906H106.603V20.0906C106.603 16.4186 104.395 14.4026 101.299 14.4026C99.5949 14.4026 98.1549 15.1226 97.2909 16.2506V14.5946H93.9309V27.8906H97.2909V20.5466C97.2909 18.4106 98.4669 17.2586 100.291 17.2586C102.067 17.2586 103.243 18.4106 103.243 20.5466V27.8906ZM110.326 23.7626C110.326 26.8106 112.03 27.8906 114.574 27.8906H116.686V25.0586H115.126C114.07 25.0586 113.71 24.6746 113.71 23.7866V17.3546H116.686V14.5946H113.71V11.3066H110.326V14.5946H108.742V17.3546H110.326V23.7626ZM124.767 23.8826L121.335 14.5946H117.567L122.895 27.5546L120.015 34.1786H123.591L131.823 14.5946H128.247L124.767 23.8826Z" fill="white"/>
<path d="M137.162 26.0906C137.162 24.9866 136.298 24.1226 135.122 24.1226C133.898 24.1226 133.034 24.9866 133.034 26.0906C133.034 27.1946 133.898 28.0586 135.122 28.0586C136.298 28.0586 137.162 27.1946 137.162 26.0906Z" fill="#FF5A3C"/>
<path d="M36.9209 13.6005L20.0727 0.433506C19.3332 -0.144523 18.2181 -0.14446 17.4788 0.433443L0.630604 13.6006C0.0382148 14.0636 -0.157464 14.7769 0.131947 15.4178C0.421431 16.0588 1.12626 16.4729 1.92767 16.4729H4.61862V29.6652C4.61862 30.1883 5.1131 30.6124 5.72294 30.6124H14.9578C15.5677 30.6124 16.0621 30.1884 16.0621 29.6652V21.6552H21.4897V29.6653C21.4897 30.1884 21.9841 30.6125 22.594 30.6125H31.8284C32.4383 30.6125 32.9327 30.1884 32.9327 29.6653V16.4729H35.6242C36.4255 16.4729 37.1304 16.0587 37.4199 15.4178C37.709 14.7768 37.5133 14.0636 36.9209 13.6005Z" fill="#FF5A3C"/>
<path d="M32.6424 1.89062H25.2261L33.7467 8.53559V2.83771C33.7467 2.31466 33.2523 1.89062 32.6424 1.89062Z" fill="#FF5A3C"/>
</svg>
