<svg width="172" height="55" viewBox="0 0 172 55" fill="none" xmlns="http://www.w3.org/2000/svg">
<path d="M36.4544 23.4062C36.4544 25.6742 35.1944 27.1502 32.3864 27.1502H28.1744V19.7702H32.3864C35.1944 19.7702 36.4544 21.1742 36.4544 23.4062ZM23.1344 15.5942V40.7222H28.1744V30.9302H30.5504L36.0944 40.7222H41.9264L35.9144 30.5342C39.9464 29.4542 41.6384 26.3582 41.6384 23.2982C41.6384 19.0862 38.6144 15.5942 32.5664 15.5942H23.1344ZM54.7649 24.5942C57.3569 24.5942 59.4449 26.2502 59.5169 28.8782H50.0489C50.4449 26.1422 52.3529 24.5942 54.7649 24.5942ZM64.2329 34.4582H58.7969C58.1489 35.7902 56.9609 36.8702 54.8009 36.8702C52.2809 36.8702 50.2649 35.2142 50.0129 32.2622H64.5929C64.7009 31.6142 64.7369 30.9662 64.7369 30.3182C64.7369 24.3782 60.6689 20.4542 54.9089 20.4542C49.0049 20.4542 44.9009 24.4502 44.9009 30.7502C44.9009 37.0142 49.1129 41.0462 54.9089 41.0462C59.8409 41.0462 63.1529 38.1302 64.2329 34.4582ZM67.1196 30.6782C67.1196 36.9062 71.1516 41.0462 76.1916 41.0462C79.3596 41.0462 81.6276 39.5342 82.8156 37.8062V40.7222H87.8916V20.7782H82.8156V23.6222C81.6276 21.9662 79.4316 20.4542 76.2276 20.4542C71.1516 20.4542 67.1196 24.4502 67.1196 30.6782ZM82.8156 30.7502C82.8156 34.5302 80.2956 36.6182 77.5236 36.6182C74.8236 36.6182 72.2676 34.4582 72.2676 30.6782C72.2676 26.8982 74.8236 24.8822 77.5236 24.8822C80.2956 24.8822 82.8156 26.9702 82.8156 30.7502ZM106.782 40.7222H111.822V29.0222C111.822 23.5142 108.51 20.4902 103.866 20.4902C101.31 20.4902 99.1501 21.5702 97.8541 23.2622V20.7782H92.8141V40.7222H97.8541V29.7062C97.8541 26.5022 99.6181 24.7742 102.354 24.7742C105.018 24.7742 106.782 26.5022 106.782 29.7062V40.7222ZM117.407 34.5302C117.407 39.1022 119.963 40.7222 123.779 40.7222H126.947V36.4742H124.607C123.023 36.4742 122.483 35.8982 122.483 34.5662V24.9182H126.947V20.7782H122.483V15.8462H117.407V20.7782H115.031V24.9182H117.407V34.5302ZM139.068 34.7102L133.92 20.7782H128.268L136.26 40.2182L131.94 50.1542H137.304L149.652 20.7782H144.288L139.068 34.7102Z" fill="#071C1F"/>
<path d="M157.661 38.0222C157.661 36.3662 156.365 35.0702 154.601 35.0702C152.765 35.0702 151.469 36.3662 151.469 38.0222C151.469 39.6782 152.765 40.9742 154.601 40.9742C156.365 40.9742 157.661 39.6782 157.661 38.0222Z" fill="#FF5A3C"/>
<path d="M44.809 48.2649C40.5808 51.7959 35.3835 53.9655 29.8998 54.4887C24.416 55.012 18.9022 53.8644 14.0826 51.1967C9.26297 48.529 5.36289 44.466 2.89458 39.5413C0.426282 34.6166 -0.494807 29.0605 0.252295 23.6027C0.999397 18.145 3.37975 13.0408 7.08072 8.9606C10.7817 4.88039 15.6302 2.01496 20.9894 0.740654C26.3487 -0.533651 31.968 -0.157236 37.1094 1.82046C42.2508 3.79816 46.6738 7.28465 49.7976 11.822L44.1769 15.6915C41.8338 12.2881 38.5161 9.67286 34.6595 8.1894C30.803 6.70594 26.5879 6.42359 22.568 7.37944C18.548 8.33529 14.9112 10.4846 12.1351 13.5452C9.35902 16.6057 7.57352 20.4344 7.01312 24.5282C6.45272 28.6221 7.14363 32.7897 8.9951 36.4837C10.8466 40.1777 13.772 43.2254 17.3872 45.2264C21.0024 47.2274 25.1383 48.0882 29.2516 47.6957C33.3649 47.3032 37.2634 45.6758 40.4349 43.0272L44.809 48.2649Z" fill="#FF5A3C"/>
</svg>
