<svg width="10" height="10" viewBox="0 0 10 10" fill="none" xmlns="http://www.w3.org/2000/svg">
<path d="M4.66667 0C2.08944 0 0 2.08944 0 4.66667C0 7.2439 2.08944 9.33333 4.66667 9.33333C7.2439 9.33333 9.33333 7.2439 9.33333 4.66667C9.33333 2.08944 7.2439 0 4.66667 0ZM6.00713 6.50645C5.80357 6.75418 5.53855 6.92126 5.22935 7.00576C5.09492 7.04225 5.03347 7.11331 5.04115 7.2535C5.04691 7.39177 5.04115 7.52812 5.03923 7.66639C5.03923 7.7893 4.97586 7.8546 4.85487 7.85844C4.77613 7.86036 4.69739 7.86228 4.61866 7.86228C4.54952 7.86228 4.48038 7.86228 4.41125 7.86036C4.28066 7.85844 4.2192 7.78354 4.2192 7.65679C4.21728 7.55693 4.21728 7.45514 4.21728 7.35528C4.21536 7.13251 4.20768 7.12483 3.99451 7.09026C3.72181 7.04609 3.45295 6.98464 3.20329 6.86365C3.00741 6.76763 2.98628 6.71962 3.04198 6.51221C3.08422 6.35857 3.12647 6.20494 3.17449 6.05322C3.20905 5.94184 3.2417 5.89191 3.30123 5.89191C3.3358 5.89191 3.37997 5.90919 3.43951 5.93992C3.71605 6.08395 4.00988 6.16461 4.31907 6.20302C4.37092 6.20878 4.42277 6.21262 4.47462 6.21262C4.61866 6.21262 4.75885 6.18573 4.8952 6.1262C5.23896 5.97641 5.29273 5.57888 5.00274 5.34074C4.9048 5.26008 4.79149 5.20055 4.67435 5.1487C4.37284 5.01619 4.05981 4.91632 3.77558 4.7454C3.31468 4.46886 3.02277 4.09054 3.05734 3.52977C3.09575 2.89602 3.45487 2.50041 4.03676 2.28916C4.27682 2.20274 4.27874 2.20466 4.27874 1.95501C4.27874 1.87051 4.27682 1.78601 4.28066 1.69959C4.28642 1.51139 4.31715 1.47874 4.50535 1.47298C4.52647 1.47298 4.54952 1.47298 4.57064 1.47298C4.60713 1.47298 4.64362 1.47298 4.68011 1.47298C4.69547 1.47298 4.71084 1.47298 4.72428 1.47298C5.08148 1.47298 5.08148 1.48834 5.0834 1.87435C5.08532 2.15857 5.08532 2.15857 5.36763 2.20274C5.58464 2.23731 5.79012 2.30069 5.98985 2.38903C6.09931 2.43704 6.14156 2.51385 6.107 2.631C6.05706 2.80384 6.00905 2.9786 5.95528 3.14952C5.92071 3.25322 5.88807 3.30123 5.82661 3.30123C5.79204 3.30123 5.74979 3.28779 5.69602 3.26091C5.41948 3.12647 5.12949 3.06118 4.82606 3.06118C4.78765 3.06118 4.74732 3.0631 4.70892 3.06502C4.61866 3.07078 4.53032 3.0823 4.44582 3.11879C4.14623 3.24938 4.09822 3.5797 4.35363 3.78326C4.4823 3.88697 4.63018 3.95994 4.78189 4.02332C5.04691 4.13278 5.31193 4.23841 5.56351 4.37668C6.35473 4.81838 6.56982 5.82277 6.00713 6.50645Z" fill="white"/>
</svg>
