<svg width="418" height="80" viewBox="0 0 418 80" fill="none" xmlns="http://www.w3.org/2000/svg">
<path d="M375.76 55H378.06V40.42H373.9V42.5H375.76V55Z" fill="#071C1F"/>
<path opacity="0.8" d="M393.51 54.9H398.37V53.95H395.2C396.37 52.88 398.17 51.53 398.17 49.76C398.17 48.45 397.33 47.56 395.85 47.56C394.56 47.56 393.54 48.33 393.5 49.91H394.6C394.63 49.09 395.06 48.53 395.86 48.53C396.71 48.53 397.04 49.05 397.04 49.81C397.04 51.24 395.23 52.56 393.51 54.07V54.9Z" fill="#627193"/>
<path opacity="0.8" d="M412.58 49.51H413.69C413.76 49 414.13 48.52 414.93 48.52C415.71 48.52 416.12 48.94 416.12 49.57C416.12 50.35 415.49 50.65 414.46 50.66H414.19V51.6H414.45C415.64 51.6 416.26 51.93 416.26 52.89C416.26 53.57 415.84 54.09 414.99 54.09C414.13 54.09 413.63 53.57 413.58 52.89H412.48C412.55 54.32 413.62 55.04 415 55.04C416.52 55.04 417.34 54.16 417.34 53C417.34 51.99 416.85 51.36 416.09 51.13V51.09C416.66 50.9 417.21 50.31 417.21 49.44C417.21 48.38 416.42 47.54 414.97 47.54C413.64 47.54 412.66 48.25 412.58 49.51Z" fill="#627193"/>
<path d="M300 54H363" stroke="#EBEBEB" stroke-width="2" stroke-linecap="round"/>
<path d="M300 54H323" stroke="#071C1F" stroke-width="2" stroke-linecap="round"/>
<rect width="114" height="80" fill="#C4C4C4"/>
<rect opacity="0.2" width="114" height="80" fill="black"/>
<path d="M13.16 15H14.3V8.05H13.16V11.03H9.89V8.05H8.75V15H9.89V11.96H13.16V15ZM22.4208 11.51C22.4208 9.43 20.8508 7.96 18.8708 7.96C16.9108 7.96 15.3208 9.43 15.3208 11.51C15.3208 13.6 16.9108 15.07 18.8708 15.07C20.8508 15.07 22.4208 13.6 22.4208 11.51ZM16.4908 11.51C16.4908 9.94 17.4908 8.96 18.8708 8.96C20.2508 8.96 21.2508 9.94 21.2508 11.51C21.2508 13.08 20.2508 14.08 18.8708 14.08C17.4908 14.08 16.4908 13.08 16.4908 11.51ZM23.4326 12.46C23.4326 14.23 24.6726 15.07 26.1326 15.07C27.5826 15.07 28.8626 14.23 28.8626 12.46V8.05H27.7226V12.48C27.7226 13.56 27.1126 14.07 26.1426 14.07C25.1826 14.07 24.5726 13.56 24.5726 12.48V8.05H23.4326V12.46ZM34.9369 13.03C34.9369 10.49 31.2569 11.47 31.2569 9.9C31.2569 9.23 31.7669 8.91 32.4269 8.93C33.1469 8.95 33.5569 9.38 33.5969 9.85H34.8569C34.7569 8.66 33.8169 7.96 32.4869 7.96C31.0669 7.96 30.0969 8.72 30.0969 9.94C30.0969 12.5 33.7869 11.41 33.7869 13.09C33.7869 13.68 33.3369 14.11 32.5369 14.11C31.7469 14.11 31.3469 13.65 31.2969 13.08H30.0769C30.0769 14.31 31.1469 15.07 32.5369 15.07C34.0869 15.07 34.9369 14.07 34.9369 13.03ZM40.022 8.04H36.182V15H40.022V14.07H37.322V11.94H39.722V11.01H37.322V8.97H40.022V8.04ZM44.4538 15H45.6038V7.71H43.5238V8.75H44.4538V15Z" fill="white"/>
<rect x="114" y="20" width="88" height="60" fill="#C4C4C4"/>
<path opacity="0.2" d="M114 20H202V80H114V20Z" fill="black"/>
<path d="M127.16 35H128.3V28.05H127.16V31.03H123.89V28.05H122.75V35H123.89V31.96H127.16V35ZM136.421 31.51C136.421 29.43 134.851 27.96 132.871 27.96C130.911 27.96 129.321 29.43 129.321 31.51C129.321 33.6 130.911 35.07 132.871 35.07C134.851 35.07 136.421 33.6 136.421 31.51ZM130.491 31.51C130.491 29.94 131.491 28.96 132.871 28.96C134.251 28.96 135.251 29.94 135.251 31.51C135.251 33.08 134.251 34.08 132.871 34.08C131.491 34.08 130.491 33.08 130.491 31.51ZM137.433 32.46C137.433 34.23 138.673 35.07 140.133 35.07C141.583 35.07 142.863 34.23 142.863 32.46V28.05H141.723V32.48C141.723 33.56 141.113 34.07 140.143 34.07C139.183 34.07 138.573 33.56 138.573 32.48V28.05H137.433V32.46ZM148.937 33.03C148.937 30.49 145.257 31.47 145.257 29.9C145.257 29.23 145.767 28.91 146.427 28.93C147.147 28.95 147.557 29.38 147.597 29.85H148.857C148.757 28.66 147.817 27.96 146.487 27.96C145.067 27.96 144.097 28.72 144.097 29.94C144.097 32.5 147.787 31.41 147.787 33.09C147.787 33.68 147.337 34.11 146.537 34.11C145.747 34.11 145.347 33.65 145.297 33.08H144.077C144.077 34.31 145.147 35.07 146.537 35.07C148.087 35.07 148.937 34.07 148.937 33.03ZM154.022 28.04H150.182V35H154.022V34.07H151.322V31.94H153.722V31.01H151.322V28.97H154.022V28.04ZM157.584 34.9H162.444V33.95H159.274C160.444 32.88 162.244 31.53 162.244 29.76C162.244 28.45 161.404 27.56 159.924 27.56C158.634 27.56 157.614 28.33 157.574 29.91H158.674C158.704 29.09 159.134 28.53 159.934 28.53C160.784 28.53 161.114 29.05 161.114 29.81C161.114 31.24 159.304 32.56 157.584 34.07V34.9Z" fill="white"/>
<rect x="202" y="20" width="88" height="60" fill="#C4C4C4"/>
<rect opacity="0.2" x="202" y="20" width="88" height="60" fill="black"/>
<path d="M215.16 35H216.3V28.05H215.16V31.03H211.89V28.05H210.75V35H211.89V31.96H215.16V35ZM224.421 31.51C224.421 29.43 222.851 27.96 220.871 27.96C218.911 27.96 217.321 29.43 217.321 31.51C217.321 33.6 218.911 35.07 220.871 35.07C222.851 35.07 224.421 33.6 224.421 31.51ZM218.491 31.51C218.491 29.94 219.491 28.96 220.871 28.96C222.251 28.96 223.251 29.94 223.251 31.51C223.251 33.08 222.251 34.08 220.871 34.08C219.491 34.08 218.491 33.08 218.491 31.51ZM225.433 32.46C225.433 34.23 226.673 35.07 228.133 35.07C229.583 35.07 230.863 34.23 230.863 32.46V28.05H229.723V32.48C229.723 33.56 229.113 34.07 228.143 34.07C227.183 34.07 226.573 33.56 226.573 32.48V28.05H225.433V32.46ZM236.937 33.03C236.937 30.49 233.257 31.47 233.257 29.9C233.257 29.23 233.767 28.91 234.427 28.93C235.147 28.95 235.557 29.38 235.597 29.85H236.857C236.757 28.66 235.817 27.96 234.487 27.96C233.067 27.96 232.097 28.72 232.097 29.94C232.097 32.5 235.787 31.41 235.787 33.09C235.787 33.68 235.337 34.11 234.537 34.11C233.747 34.11 233.347 33.65 233.297 33.08H232.077C232.077 34.31 233.147 35.07 234.537 35.07C236.087 35.07 236.937 34.07 236.937 33.03ZM242.022 28.04H238.182V35H242.022V34.07H239.322V31.94H241.722V31.01H239.322V28.97H242.022V28.04ZM245.654 29.51H246.764C246.834 29 247.204 28.52 248.004 28.52C248.784 28.52 249.194 28.94 249.194 29.57C249.194 30.35 248.564 30.65 247.534 30.66H247.264V31.6H247.524C248.714 31.6 249.334 31.93 249.334 32.89C249.334 33.57 248.914 34.09 248.064 34.09C247.204 34.09 246.704 33.57 246.654 32.89H245.554C245.624 34.32 246.694 35.04 248.074 35.04C249.594 35.04 250.414 34.16 250.414 33C250.414 31.99 249.924 31.36 249.164 31.13V31.09C249.734 30.9 250.284 30.31 250.284 29.44C250.284 28.38 249.494 27.54 248.044 27.54C246.714 27.54 245.734 28.25 245.654 29.51Z" fill="white"/>
</svg>
