<svg width="24" height="23" viewBox="0 0 24 23" fill="none" xmlns="http://www.w3.org/2000/svg">
<path d="M17.6392 14.5607L19.4155 23L11.9995 18.6897V12.7141L17.6392 14.5607Z" fill="#FEE25D"/>
<path d="M19.4155 23L17.6392 14.5607L11.9995 12.7141L19.4155 23Z" fill="#FAC030"/>
<path d="M11.9995 18.6897L4.5835 23L6.35981 14.5607L11.9995 12.7141V18.6897Z" fill="#FFF277"/>
<path d="M4.5835 23L11.9995 18.6897V12.7141L4.5835 23Z" fill="#FED835"/>
<path d="M15.4865 7.87964L24.0004 8.78515L17.6407 14.5606L12.001 12.714L15.4865 7.87964Z" fill="#FED839"/>
<path d="M17.6397 14.5607L23.9994 8.78528L12 12.7141L17.6397 14.5607Z" fill="#FAA922"/>
<path d="M6.35967 14.5606L0 8.78515L8.51384 7.87964L11.9994 12.714L6.35967 14.5606Z" fill="#FDF5A3"/>
<path d="M0 8.78528L6.35967 14.5607L11.9994 12.7141L0 8.78528Z" fill="#FBDA37"/>
<path d="M11.9997 0L15.4852 7.8797L11.9997 12.7141L8.51416 7.8797L11.9997 0Z" fill="#FEF278"/>
<path d="M15.485 7.8797L11.9995 0V12.7141L15.485 7.8797Z" fill="#FCC02C"/>
</svg>
